<?xml version="1.0" encoding="utf-8"?>
<!-- Generator: Adobe Illustrator 24.1.3, SVG Export Plug-In . SVG Version: 6.00 Build 0)  -->
<svg version="1.1" id="Warstwa_1" xmlns="http://www.w3.org/2000/svg" xmlns:xlink="http://www.w3.org/1999/xlink" x="0px" y="0px"
	 viewBox="0 0 132.14 184.89" style="enable-background:new 0 0 132.14 184.89;" xml:space="preserve">
<g>
	<path d="M103.33,9.23c0-5.88-3.41-9.24-8.78-9.23c-5.34,0-8.82,3.36-8.82,9.25l0.3,96.81c-0.59,4.95,0.09,9.96-0.98,14.9
		c-2.13,9.89-10.17,15.76-20.9,15.09c-9.21-0.58-16.47-8.07-17.06-17.69c-0.21-3.48-0.25-6.97-0.36-10.46
		c0.06-11.63,0.24-23.26,0.14-34.89c-0.05-5.84-4.02-9.66-9.28-9.52c-5.16,0.13-8.55,3.78-8.56,9.56
		c-0.01,11.63,0.11,23.26,0.17,34.89c-0.05,3.82-0.26,7.64-0.13,11.45c0.53,15.25,10.69,28.27,25.4,32.71
		c15.86,4.79,32.56-0.28,41.65-12.29c7.74-10.23,7.65-21.9,6.95-33.77L103.33,9.23z"/>
</g>
<path d="M131.85,105.01c0.04-16.3,0.14-32.6,0.07-48.9c-0.03-6.16-4.01-10.18-9.42-10.04c-5.24,0.14-8.7,3.97-8.7,10.04
	c0,16.63,0.12,33.26,0.2,49.9c-0.82,6.44,0.08,12.91-0.79,19.39c-2.98,22.2-20.63,39-43.88,41.34
	c-20.25,2.04-40.96-11.64-48.35-31.28c-3.4-9.05-2.48-18.31-3.03-27.52c0.04-4.79,0.25-9.59,0.08-14.38
	c-0.19-5.36-4.15-8.97-9.29-8.86c-5.07,0.11-8.49,3.49-8.62,8.86c-0.12,4.79,0.06,9.59,0.11,14.38c-0.27,7.8-0.57,15.57,0.82,23.34
	c4.51,25.31,24.48,46.09,50.21,51.98c25.61,5.86,52.69-4.4,67.83-25.26C130.69,142.01,133.07,123.99,131.85,105.01z"/>
<path d="M74.94,106.97C75,96.16,75.09,85.35,75.1,74.54c0.01-6.49-3.27-10.38-8.68-10.48c-5.69-0.11-9.29,3.83-9.31,10.5
	C57.08,85.04,57.2,95.52,57.25,106c-0.05,3.96-0.36,7.93-0.1,11.87c0.33,5.04,4.34,8.41,9.28,8.3c5.08-0.11,8.5-3.49,8.66-8.8
	C75.19,113.9,75,110.44,74.94,106.97z"/>
</svg>
